<?xml version="1.0" encoding="UTF-8" standalone="no"?><!DOCTYPE svg PUBLIC "-//W3C//DTD SVG 1.1//EN" "http://www.w3.org/Graphics/SVG/1.1/DTD/svg11.dtd"><svg width="100%" height="100%" viewBox="0 0 63 66" version="1.1" xmlns="http://www.w3.org/2000/svg" xmlns:xlink="http://www.w3.org/1999/xlink" xml:space="preserve" style="fill-rule:evenodd;clip-rule:evenodd;stroke-linejoin:round;stroke-miterlimit:1.41421;"><rect id="Artboard1" x="0" y="0" width="63.2" height="66.8" style="fill:none;"/><path d="M31.455,45.809l-2.026,12.064l-2.302,0l2.026,-12.064c0.092,-0.644 0.737,-1.197 1.381,-1.197c0.645,0 1.013,0.553 0.921,1.197Zm6.078,-19.614l23.575,0.092c-0.092,-1.382 -0.276,-2.763 -0.461,-4.144l-22.93,-0.092l0.553,-6.262l20.812,0.092c-0.184,-0.645 -0.46,-1.29 -0.737,-1.934l-1.289,-2.947l-44.387,0l-1.657,2.486c-4.052,5.986 -6.907,13.353 -7.828,20.628c-0.092,0.645 -0.184,1.289 -0.184,2.026c0.46,-0.092 0.829,-0.184 1.289,-0.184l11.051,0c-2.855,-1.473 -4.42,-4.604 -3.776,-8.196c0.829,-5.065 5.618,-9.117 10.683,-9.117c5.064,0 8.472,4.052 7.643,9.117c-0.553,3.592 -3.223,6.723 -6.538,8.196l11.05,0c2.579,0 4.328,2.118 3.96,4.697l-2.855,17.404l16.024,0l1.657,-2.486c2.21,-3.315 4.052,-6.999 5.434,-10.959l-10.406,-0.092l-0.553,4.421l-6.999,-7.736l8.933,-7.367l-0.553,4.42l11.327,0.092c0.276,-1.197 0.461,-2.302 0.645,-3.499c0.092,-0.737 0.184,-1.473 0.184,-2.21l-24.127,-0.092l0.46,-6.354Zm-32.415,18.417c-0.645,0 -1.289,0.553 -1.381,1.197l-0.277,1.75c0.369,1.842 0.829,3.684 1.474,5.433l1.197,-7.183c0.092,-0.644 -0.368,-1.197 -1.013,-1.197Z" style="fill-rule:nonzero;"/></svg>