<?xml version="1.0" standalone="no"?>
<!DOCTYPE svg PUBLIC "-//W3C//DTD SVG 1.1//EN" "http://www.w3.org/Graphics/SVG/1.1/DTD/svg11.dtd">
<svg viewBox="0 0 475 475" x="0px" y="0px" width="475" height="475" version="1.1" xmlns="http://www.w3.org/2000/svg" xmlns:xlink="http://www.w3.org/1999/xlink" xml:space="preserve" style="fill-rule:evenodd;clip-rule:evenodd;stroke-linejoin:round;stroke-miterlimit:1.41421;">
    <g transform="matrix(1,0,0,1,0,94)">
        <path d="M0,0L69.36,0C65.35,0.63 61.35,1.32 57.42,2.31C57.93,5.99 58.61,9.68 58.37,13.41C54.42,14.9 50.51,16.51 46.69,18.32C43.86,15.82 41.69,12.71 39.34,9.78C35.49,12.32 31.69,14.95 28.13,17.89C30.2,20.97 32.42,23.99 33.78,27.47C31.43,29.99 29.29,32.74 26.69,35C22.88,34.83 19.9,32.1 16.6,30.52C13.94,34.33 11.57,38.33 9.52,42.49C13.99,45.2 18.24,50.35 24,49.12C35.15,47.51 46.15,45.04 57.2,42.92C59.35,42.44 61.56,42.59 63.73,42.81C66,41.58 68.4,40.6 70.96,40.2C79.62,38.58 88.23,36.74 96.9,35.18C104.5,33.93 112.98,33.87 119.65,38.26C127.04,42.96 128.62,54.34 123,60.99C118.5,66.48 111.48,68.8 104.89,70.68C105.29,72.78 105.67,74.89 106.05,77C110.2,77 114.35,77 118.5,77.01C118.47,78.79 118.45,80.57 118.41,82.35C122.07,78.83 126.76,75.94 132.04,76.31C137.31,75.98 142.2,78.98 144.72,83.54C147.76,80.59 151.13,77.59 155.42,76.73C160.14,75.8 165.67,76.22 169.29,79.74C172.52,82.9 173.32,87.65 173.42,91.98C173.46,100.11 173.39,108.24 173.42,116.37C168.85,116.36 164.27,116.36 159.69,116.37C159.59,108.69 159.9,101.01 159.55,93.34C159.47,90.65 158.08,87.32 154.97,87.22C150.78,86.46 148.24,90.34 145.92,93.1C145.94,100.86 145.93,108.61 145.93,116.37C141.37,116.36 136.8,116.36 132.24,116.37C132.16,108.91 132.41,101.43 132.15,93.97C132.02,91.25 131.09,87.48 127.78,87.26C123.53,86.39 120.72,90.19 118.45,93.11C118.5,100.86 118.46,108.61 118.48,116.37C113.88,116.36 109.29,116.36 104.69,116.37C104.7,109.65 104.68,102.93 104.71,96.21C99.81,97.06 94.99,98.5 90.02,98.85C87.79,99.01 86.16,96.98 85.91,94.93C84.96,92.35 86.95,90.18 88.21,88.16C86.18,77.44 84.17,66.71 82.12,55.99C81.04,70 79.9,83.99 78.65,97.98C78.7,103.66 68.99,105.67 66.83,100.4C63.73,94.56 60.9,88.58 57.89,82.7C57.34,89.34 56.88,95.98 56.19,102.6C55.97,108.22 46.37,109.97 44.28,104.69C37.76,92.17 31.36,79.58 24.87,67.04C23.42,64.4 21.76,61.51 18.81,60.34C14.11,58.46 8.91,58.79 3.95,58.59C3.27,63.2 2.67,67.84 2.39,72.5C6.06,73.07 9.79,73.48 13.29,74.77C13.56,78.34 13.89,81.91 14.28,85.47C11.04,87.31 7.47,88.39 3.99,89.67C5.19,94.03 6.25,98.47 8.08,102.63C11.71,102.08 15.19,100.79 18.86,100.47C20.57,103.68 22.33,106.87 24.17,110.01C21.92,112.89 19.18,115.32 16.52,117.8C19.29,121.36 22.05,125 25.44,128C28.66,126.28 31.16,123.47 34.39,121.74C37.18,123.92 39.98,126.08 42.87,128.11C42.78,129.19 42.68,130.26 42.59,131.33C36.4,135.45 30.95,140.89 27.81,147.72C23.49,156.79 22.78,167.25 24.28,177.08C25.71,186.37 30.63,195.17 38.25,200.76C48.05,208.25 60.96,210.25 72.98,209.2C78.9,208.75 84.66,206.98 89.89,204.19C93.09,206.62 96.86,208.44 100.98,208.24C111,208.2 121.05,208.53 131.05,207.8C143.14,209.37 155.65,206.46 167.47,210.04C165.71,213.8 162.9,217.6 163.67,221.99C164.09,225.1 166.68,227.09 168.96,228.91C165.6,233.21 163.9,239.01 165.95,244.28C168.72,252.21 176.95,256.26 184.48,258.53C195.32,261.77 206.74,262.33 217.99,262.29C232.45,262.13 247.22,260.48 260.6,254.65C267.64,251.58 274.28,246.9 278.11,240.09C279.27,237.47 282.02,236.51 284.52,235.65C287.03,238.43 289.58,241.18 292.19,243.87C290.75,247.2 288.48,250.05 286.79,253.25C290.02,256.68 294.24,258.99 298.19,261.5C300.39,258.54 302.48,255.46 305.19,252.91C308.62,254.43 312.09,255.87 315.56,257.31C315.59,261.01 314.86,264.65 314.29,268.29C318.7,269.32 323.13,270.56 327.67,270.8C329.85,267.92 328.96,263.39 331.39,260.45C335.02,260.03 338.68,260.26 342.33,260.08C343.97,263.4 344.5,267.1 345.83,270.53C350.48,270.06 355,268.77 359.48,267.5C358.77,263.89 358,260.27 357.8,256.59C361.23,255.03 364.65,253.43 368.03,251.77C370.8,254.26 373.03,257.24 375.33,260.15C379.28,257.57 383.1,254.78 386.67,251.7C384.58,248.6 382.31,245.61 380.7,242.24C383.24,239.5 385.72,236.69 388.08,233.79C391.63,234.96 394.9,236.8 398.21,238.52C400.81,234.54 403.16,230.4 405.16,226.1C401.93,224.25 398.69,222.41 395.87,219.96C397,216.48 398.09,213 399.06,209.48C401.16,209.19 403.28,208.99 405.4,208.83C405.33,211.73 404.95,214.61 404.57,217.48C407.86,218.22 411.17,218.85 414.5,219.4C415.14,216.78 415.8,214.17 416.62,211.61C419.42,211.57 422.23,211.54 425.04,211.54C425.83,214.07 426.54,216.63 427.29,219.18C430.59,218.51 433.88,217.76 437.15,216.96C436.7,214.29 436.24,211.63 435.91,208.94C438.44,207.78 440.97,206.61 443.51,205.46C445.36,207.4 447.08,209.47 448.83,211.52C451.57,209.56 454.29,207.55 456.9,205.42C455.4,203.2 453.89,200.99 452.53,198.69C454.34,196.58 456.17,194.49 457.99,192.4C460.47,193.44 462.87,194.63 465.27,195.83C467.07,192.95 468.74,189.99 470.32,186.98C468.01,185.56 465.72,184.11 463.54,182.51C464.33,179.89 465.13,177.27 465.91,174.64C468.63,174.57 471.36,174.67 474.09,174.79C474.41,172.17 474.73,169.55 475,166.93L475,287L0,287L0,0Z" style="fill:white;fill-rule:nonzero;"/>
    </g>
    <g transform="matrix(1,0,0,1,0,94)">
        <path d="M69.36,0L71.14,0C71.85,3.61 72.46,7.27 73.92,10.67C77.43,10.81 80.94,10.92 84.45,11.12C86.38,7.85 87.2,4.12 88.23,0.51C92.79,1.3 97.28,2.45 101.7,3.81C100.92,7.47 99.97,11.13 100,14.91C103.2,16.38 106.37,17.92 109.53,19.46C112.5,17.19 114.76,14.21 117.11,11.34C120.99,13.9 124.67,16.77 128.13,19.88C125.93,22.83 123.66,25.76 122.05,29.09C124.38,31.82 126.71,34.55 128.97,37.34C132.6,36.42 135.87,34.59 139.17,32.91C141.65,36.82 143.82,40.93 145.77,45.13C142.56,47.04 139.21,48.77 136.41,51.29C138.32,55.5 139.53,60.92 143.87,63.31C145.76,62.85 147.49,61.91 149.25,61.1C148.17,58.49 146.93,55.96 145.67,53.44C148.63,51.77 151.64,50.2 154.71,48.72C156.16,50.96 157.64,53.18 159.26,55.31C162.35,54.42 165.56,53.83 168.51,52.51C169.15,49.99 168.84,47.36 168.88,44.8C172.3,44.52 175.73,44.35 179.16,44.23C179.48,46.87 179.81,49.52 180.33,52.13C183.02,52.5 185.71,52.87 188.4,53.25C189.74,50.95 190.76,48.46 192.22,46.23C195.49,46.91 198.57,48.28 201.67,49.48C200.84,51.98 200.02,54.5 199.32,57.04C201.61,58.43 203.91,59.81 206.19,61.22C207.66,60.2 209.11,59.14 210.54,58.07C210.03,57.51 209.01,56.38 208.5,55.82C211.32,52.06 214.35,48.43 217.71,45.14C220.65,47.5 223.48,50.07 226.93,51.69C229.73,49.45 232.56,47.26 235.45,45.13C234.78,41.35 233,37.93 231.47,34.45C235.54,32.07 239.83,30.08 244.19,28.27C245.98,31.61 247.59,35.09 250.02,38.03C253.68,37.08 257.39,36.32 261.07,35.47C262.35,35.4 262.83,34.01 263.11,32.98C263.65,29.94 263.41,26.84 263.57,23.77C268.28,23.56 272.99,23.55 277.7,23.77C277.85,27.6 277.85,31.47 278.8,35.21C282.32,35.87 285.83,36.6 289.33,37.38C291.75,34.38 293.21,30.8 294.85,27.36C299.28,28.98 303.58,30.92 307.8,33.01C306.44,36.57 304.83,40.08 304.17,43.87C307.13,45.92 310.07,48.02 312.96,50.18C316.35,48.38 319.13,45.72 322.03,43.27C325.44,46.55 328.66,50.05 331.55,53.8C328.83,56.4 326.01,58.93 323.86,62.05C325.76,65.16 327.6,68.31 329.44,71.46C333.21,71.14 336.81,69.92 340.4,68.77C342.39,73.08 343.3,77.85 345.68,81.97C348.17,82.83 350.83,83.08 353.41,83.59C355.47,80.93 356.94,77.9 358.54,74.96C362.5,76.44 366.41,78.07 370.24,79.88C368.95,82.89 367.65,85.9 366.75,89.06C369.51,90.89 372.25,92.76 374.99,94.63C377.96,92.97 380.58,90.81 383.2,88.66C386.25,91.51 389.17,94.5 391.83,97.73C388.88,100.34 385.93,103 383.68,106.27C385.43,108.71 386.98,111.33 389.07,113.5C392.79,113.03 396.29,111.58 399.91,110.66C401.27,113.94 402.74,117.18 404.77,120.11C407.86,119.34 410.98,118.64 414.11,118C414.46,115.26 414.6,112.49 414.73,109.73C418.1,109.68 421.47,109.67 424.84,109.74C425,112.51 425.18,115.28 425.6,118.03C428.21,118.54 430.82,119.07 433.43,119.6C434.92,117.29 436.03,114.74 437.66,112.52C440.79,113.54 443.73,115.03 446.69,116.48C445.71,119.02 444.74,121.56 443.95,124.16C446.14,125.77 448.35,127.36 450.58,128.91C452.85,127.36 454.98,125.63 457.09,123.88C459.43,126.3 461.7,128.79 463.87,131.37C461.98,133.33 460.08,135.29 458.32,137.36C459.65,139.71 461.02,142.04 462.42,144.36C465.11,143.84 467.75,143.13 470.39,142.4C471.56,145.58 472.63,148.79 473.6,152.04C471.07,153.02 468.54,154.01 466.09,155.15C466.36,157.86 466.66,160.57 466.94,163.29C469.6,163.89 472.3,164.3 475,164.72L475,166.93C474.73,169.55 474.41,172.17 474.09,174.79C471.36,174.67 468.63,174.57 465.91,174.64C465.13,177.27 464.33,179.89 463.54,182.51C465.72,184.11 468.01,185.56 470.32,186.98C468.74,189.99 467.07,192.95 465.27,195.83C462.87,194.63 460.47,193.44 457.99,192.4C456.17,194.49 454.34,196.58 452.53,198.69C453.89,200.99 455.4,203.2 456.9,205.42C454.29,207.55 451.57,209.56 448.83,211.52C447.08,209.47 445.36,207.4 443.51,205.46C440.97,206.61 438.44,207.78 435.91,208.94C436.24,211.63 436.7,214.29 437.15,216.96C433.88,217.76 430.59,218.51 427.29,219.18C426.54,216.63 425.83,214.07 425.04,211.54C422.23,211.54 419.42,211.57 416.62,211.61C415.8,214.17 415.14,216.78 414.5,219.4C411.17,218.85 407.86,218.22 404.57,217.48C404.95,214.61 405.33,211.73 405.4,208.83C403.28,208.99 401.16,209.19 399.06,209.48C398.09,213 397,216.48 395.87,219.96C398.69,222.41 401.93,224.25 405.16,226.1C403.16,230.4 400.81,234.54 398.21,238.52C394.9,236.8 391.63,234.96 388.08,233.79C385.72,236.69 383.24,239.5 380.7,242.24C382.31,245.61 384.58,248.6 386.67,251.7C383.1,254.78 379.28,257.57 375.33,260.15C373.03,257.24 370.8,254.26 368.03,251.77C364.65,253.43 361.23,255.03 357.8,256.59C358,260.27 358.77,263.89 359.48,267.5C355,268.77 350.48,270.06 345.83,270.53C344.5,267.1 343.97,263.4 342.33,260.08C338.68,260.26 335.02,260.03 331.39,260.45C328.96,263.39 329.85,267.92 327.67,270.8C323.13,270.56 318.7,269.32 314.29,268.29C314.86,264.65 315.59,261.01 315.56,257.31C312.09,255.87 308.62,254.43 305.19,252.91C302.48,255.46 300.39,258.54 298.19,261.5C294.24,258.99 290.02,256.68 286.79,253.25C288.48,250.05 290.75,247.2 292.19,243.87C289.58,241.18 287.03,238.43 284.52,235.65C282.02,236.51 279.27,237.47 278.11,240.09C274.28,246.9 267.64,251.58 260.6,254.65C247.22,260.48 232.45,262.13 217.99,262.29C206.74,262.33 195.32,261.77 184.48,258.53C176.95,256.26 168.72,252.21 165.95,244.28C163.9,239.01 165.6,233.21 168.96,228.91C166.68,227.09 164.09,225.1 163.67,221.99C162.9,217.6 165.71,213.8 167.47,210.04C155.65,206.46 143.14,209.37 131.05,207.8C121.05,208.53 111,208.2 100.98,208.24C96.86,208.44 93.09,206.62 89.89,204.19C84.66,206.98 78.9,208.75 72.98,209.2C60.96,210.25 48.05,208.25 38.25,200.76C30.63,195.17 25.71,186.37 24.28,177.08C22.78,167.25 23.49,156.79 27.81,147.72C30.95,140.89 36.4,135.45 42.59,131.33C42.68,130.26 42.78,129.19 42.87,128.11C39.98,126.08 37.18,123.92 34.39,121.74C31.16,123.47 28.66,126.28 25.44,128C22.05,125 19.29,121.36 16.52,117.8C19.18,115.32 21.92,112.89 24.17,110.01C22.33,106.87 20.57,103.68 18.86,100.47C15.19,100.79 11.71,102.08 8.08,102.63C6.25,98.47 5.19,94.03 3.99,89.67C7.47,88.39 11.04,87.31 14.28,85.47C13.89,81.91 13.56,78.34 13.29,74.77C9.79,73.48 6.06,73.07 2.39,72.5C2.67,67.84 3.27,63.2 3.95,58.59C8.91,58.79 14.11,58.46 18.81,60.34C21.76,61.51 23.42,64.4 24.87,67.04C31.36,79.58 37.76,92.17 44.28,104.69C46.37,109.97 55.97,108.22 56.19,102.6C56.88,95.98 57.34,89.34 57.89,82.7C60.9,88.58 63.73,94.56 66.83,100.4C68.99,105.67 78.7,103.66 78.65,97.98C79.9,83.99 81.04,70 82.12,55.99C84.17,66.71 86.18,77.44 88.21,88.16C86.95,90.18 84.96,92.35 85.91,94.93C86.16,96.98 87.79,99.01 90.02,98.85C94.99,98.5 99.81,97.06 104.71,96.21C104.68,102.93 104.7,109.65 104.69,116.37C109.29,116.36 113.88,116.36 118.48,116.37C118.46,108.61 118.5,100.86 118.45,93.11C120.72,90.19 123.53,86.39 127.78,87.26C131.09,87.48 132.02,91.25 132.15,93.97C132.41,101.43 132.16,108.91 132.24,116.37C136.8,116.36 141.37,116.36 145.93,116.37C145.93,108.61 145.94,100.86 145.92,93.1C148.24,90.34 150.78,86.46 154.97,87.22C158.08,87.32 159.47,90.65 159.55,93.34C159.9,101.01 159.59,108.69 159.69,116.37C164.27,116.36 168.85,116.36 173.42,116.37C173.39,108.24 173.46,100.11 173.42,91.98C173.32,87.65 172.52,82.9 169.29,79.74C165.67,76.22 160.14,75.8 155.42,76.73C151.13,77.59 147.76,80.59 144.72,83.54C142.2,78.98 137.31,75.98 132.04,76.31C126.76,75.94 122.07,78.83 118.41,82.35C118.45,80.57 118.47,78.79 118.5,77.01C114.35,77 110.2,77 106.05,77C105.67,74.89 105.29,72.78 104.89,70.68C111.48,68.8 118.5,66.48 123,60.99C128.62,54.34 127.04,42.96 119.65,38.26C112.98,33.87 104.5,33.93 96.9,35.18C88.23,36.74 79.62,38.58 70.96,40.2C68.4,40.6 66,41.58 63.73,42.81C61.56,42.59 59.35,42.44 57.2,42.92C46.15,45.04 35.15,47.51 24,49.12C18.24,50.35 13.99,45.2 9.52,42.49C11.57,38.33 13.94,34.33 16.6,30.52C19.9,32.1 22.88,34.83 26.69,35C29.29,32.74 31.43,29.99 33.78,27.47C32.42,23.99 30.2,20.97 28.13,17.89C31.69,14.95 35.49,12.32 39.34,9.78C41.69,12.71 43.86,15.82 46.69,18.32C50.51,16.51 54.42,14.9 58.37,13.41C58.61,9.68 57.93,5.99 57.42,2.31C61.35,1.32 65.35,0.63 69.36,0Z" style="fill:rgb(35,31,32);fill-rule:nonzero;"/>
    </g>
    <g transform="matrix(1,0,0,1,0,94)">
        <path d="M71.14,0L475,0L475,164.72C472.3,164.3 469.6,163.89 466.94,163.29C466.66,160.57 466.36,157.86 466.09,155.15C468.54,154.01 471.07,153.02 473.6,152.04C472.63,148.79 471.56,145.58 470.39,142.4C467.75,143.13 465.11,143.84 462.42,144.36C461.02,142.04 459.65,139.71 458.32,137.36C460.08,135.29 461.98,133.33 463.87,131.37C461.7,128.79 459.43,126.3 457.09,123.88C454.98,125.63 452.85,127.36 450.58,128.91C448.35,127.36 446.14,125.77 443.95,124.16C444.74,121.56 445.71,119.02 446.69,116.48C443.73,115.03 440.79,113.54 437.66,112.52C436.03,114.74 434.92,117.29 433.43,119.6C430.82,119.07 428.21,118.54 425.6,118.03C425.18,115.28 425,112.51 424.84,109.74C421.47,109.67 418.1,109.68 414.73,109.73C414.6,112.49 414.46,115.26 414.11,118C410.98,118.64 407.86,119.34 404.77,120.11C402.74,117.18 401.27,113.94 399.91,110.66C396.29,111.58 392.79,113.03 389.07,113.5C386.98,111.33 385.43,108.71 383.68,106.27C385.93,103 388.88,100.34 391.83,97.73C389.17,94.5 386.25,91.51 383.2,88.66C380.58,90.81 377.96,92.97 374.99,94.63C372.25,92.76 369.51,90.89 366.75,89.06C367.65,85.9 368.95,82.89 370.24,79.88C366.41,78.07 362.5,76.44 358.54,74.96C356.94,77.9 355.47,80.93 353.41,83.59C350.83,83.08 348.17,82.83 345.68,81.97C343.3,77.85 342.39,73.08 340.4,68.77C336.81,69.92 333.21,71.14 329.44,71.46C327.6,68.31 325.76,65.16 323.86,62.05C326.01,58.93 328.83,56.4 331.55,53.8C328.66,50.05 325.44,46.55 322.03,43.27C319.13,45.72 316.35,48.38 312.96,50.18C310.07,48.02 307.13,45.92 304.17,43.87C304.83,40.08 306.44,36.57 307.8,33.01C303.58,30.92 299.28,28.98 294.85,27.36C293.21,30.8 291.75,34.38 289.33,37.38C285.83,36.6 282.32,35.87 278.8,35.21C277.85,31.47 277.85,27.6 277.7,23.77C272.99,23.55 268.28,23.56 263.57,23.77C263.41,26.84 263.65,29.94 263.11,32.98C262.83,34.01 262.35,35.4 261.07,35.47C257.39,36.32 253.68,37.08 250.02,38.03C247.59,35.09 245.98,31.61 244.19,28.27C239.83,30.08 235.54,32.07 231.47,34.45C233,37.93 234.78,41.35 235.45,45.13C232.56,47.26 229.73,49.45 226.93,51.69C223.48,50.07 220.65,47.5 217.71,45.14C214.35,48.43 211.32,52.06 208.5,55.82C209.01,56.38 210.03,57.51 210.54,58.07C209.11,59.14 207.66,60.2 206.19,61.22C203.91,59.81 201.61,58.43 199.32,57.04C200.02,54.5 200.84,51.98 201.67,49.48C198.57,48.28 195.49,46.91 192.22,46.23C190.76,48.46 189.74,50.95 188.4,53.25C185.71,52.87 183.02,52.5 180.33,52.13C179.81,49.52 179.48,46.87 179.16,44.23C175.73,44.35 172.3,44.52 168.88,44.8C168.84,47.36 169.15,49.99 168.51,52.51C165.56,53.83 162.35,54.42 159.26,55.31C157.64,53.18 156.16,50.96 154.71,48.72C151.64,50.2 148.63,51.77 145.67,53.44C146.93,55.96 148.17,58.49 149.25,61.1C147.49,61.91 145.76,62.85 143.87,63.31C139.53,60.92 138.32,55.5 136.41,51.29C139.21,48.77 142.56,47.04 145.77,45.13C143.82,40.93 141.65,36.82 139.17,32.91C135.87,34.59 132.6,36.42 128.97,37.34C126.71,34.55 124.38,31.82 122.05,29.09C123.66,25.76 125.93,22.83 128.13,19.88C124.67,16.77 120.99,13.9 117.11,11.34C114.76,14.21 112.5,17.19 109.53,19.46C106.37,17.92 103.2,16.38 100,14.91C99.97,11.13 100.92,7.47 101.7,3.81C97.28,2.45 92.79,1.3 88.23,0.51C87.2,4.12 86.38,7.85 84.45,11.12C80.94,10.92 77.43,10.81 73.92,10.67C72.46,7.27 71.85,3.61 71.14,0Z" style="fill:white;fill-rule:nonzero;"/>
    </g>
    <g transform="matrix(1,0,0,1,0,94)">
        <path d="M95.83,38.88C102.89,37.66 110.78,37.01 117.2,40.81C123.67,44.43 124.78,54.41 119.62,59.6C114.7,64.71 107.49,66.45 100.82,67.98C102.06,73.91 102.92,79.93 104.27,85.84C104.46,87.93 106.89,88.19 108.34,89.15C108.47,90.04 108.61,90.94 108.74,91.83C102.22,93.16 95.71,94.63 89.12,95.56C88.78,92.29 92.72,90.28 91.53,86.99C89.15,74.37 86.77,61.74 84.37,49.11C84.15,47.45 82.91,46.24 81.96,44.97C78.44,48 79.04,52.87 78.59,57.04C77.46,70.58 76.42,84.14 75.16,97.68C75.21,99.93 72.21,99.47 70.78,100.3C65.49,90.36 60.54,80.23 55.54,70.15C54.43,81.29 53.76,92.47 52.55,103.59C51.06,103.9 49.57,104.2 48.08,104.48C40.6,89.84 33.16,75.17 25.74,60.49C24.83,57.04 19.7,57.94 19.54,53.98C25.85,52.65 32.15,51.26 38.53,50.35C38.89,53.25 34.88,55.32 36.83,58.06C40.53,65.53 44.4,72.91 48.12,80.36C48.45,74.2 49.16,68.07 49.58,61.92C50.24,57.69 47.7,52.78 43.08,52.42C42.95,51.67 42.7,50.18 42.57,49.43C48.89,48.08 55.22,46.8 61.6,45.73C62.18,48.41 60.25,50.16 58.5,51.83C62.48,59.88 66.64,67.84 70.55,75.93C71.18,66.93 72.25,57.94 72.39,48.92C70.75,48.47 69.12,48.03 67.48,47.59C67.35,46.61 67.22,45.63 67.09,44.65C76.63,42.53 86.25,40.81 95.83,38.88Z" style="fill:rgb(1,102,153);fill-rule:nonzero;"/>
    </g>
    <g transform="matrix(1,0,0,1,0,94)">
        <path d="M96.17,42.94C100.21,42.58 105.63,41.78 108.04,45.97C109.91,49.55 110.9,53.9 109.95,57.88C108.74,62.21 103.72,62.9 100.03,63.89C98.8,56.9 97.33,49.95 96.17,42.94Z" style="fill:white;fill-rule:nonzero;"/>
    </g>
    <g transform="matrix(1,0,0,1,0,94)">
        <path d="M100.28,45.79C101.94,46.34 104.28,46.08 105.16,47.94C106.45,50.44 106.89,53.33 106.77,56.11C106.78,58.31 104.34,58.89 102.87,59.87C101.96,55.19 100.98,50.51 100.28,45.79Z" style="fill:rgb(35,31,32);fill-rule:nonzero;"/>
    </g>
    <g transform="matrix(1,0,0,1,0,94)">
        <path d="M63.68,50.87C65.19,50.27 66.69,50.27 68.18,50.88C69.2,54.93 68.2,59.11 68.1,63.21C66.57,59.17 62.87,55.43 63.68,50.87Z" style="fill:rgb(35,31,32);fill-rule:nonzero;"/>
    </g>
    <g transform="matrix(1,0,0,1,0,94)">
        <path d="M40.83,55.53C43.42,55.15 45.67,57.29 46.19,59.69C46.19,62.39 45.8,65.07 45.59,67.76C44.07,63.69 40.51,60.04 40.83,55.53Z" style="fill:rgb(35,31,32);fill-rule:nonzero;"/>
    </g>
    <g transform="matrix(1,0,0,1,0,94)">
        <path d="M183.07,62.76C187.67,62.76 192.27,62.76 196.88,62.75C196.87,73.2 196.87,83.65 196.88,94.1C201.32,88.39 205.83,82.73 210.28,77.02C215.79,76.98 221.31,77.01 226.82,77C221.79,83.12 216.77,89.26 211.73,95.38C217.54,102.34 223.27,109.38 229.06,116.36C223.23,116.37 217.41,116.36 211.58,116.36C206.71,110.15 201.75,103.99 196.87,97.78C196.87,103.98 196.87,110.17 196.88,116.37C192.27,116.36 187.67,116.36 183.07,116.37C183.07,98.5 183.07,80.63 183.07,62.76Z" style="fill:white;fill-rule:nonzero;"/>
    </g>
    <g transform="matrix(1,0,0,1,0,94)">
        <path d="M228.03,84.15C234.67,77.71 240.51,70.42 247.63,64.5C248.02,68.66 247.85,72.83 247.87,77C252.2,77 256.54,77 260.87,77C260.87,80.23 260.87,83.47 260.88,86.7C256.54,86.69 252.21,86.7 247.87,86.7C247.98,91.8 247.62,96.92 248.1,102C248.14,103.73 249.38,105.29 251.09,105.64C254.9,106.55 258.55,104.65 261.96,103.18C261.92,106.84 261.93,110.51 261.93,114.18C255.62,116.64 248.44,118.22 241.86,115.92C237.19,114.34 234.48,109.48 234.3,104.74C234.03,98.73 234.26,92.71 234.19,86.7C232.12,86.7 230.05,86.7 227.99,86.7C228,86.06 228.02,84.79 228.03,84.15Z" style="fill:white;fill-rule:nonzero;"/>
    </g>
    <g transform="matrix(1,0,0,1,0,94)">
        <path d="M272.92,71.88C276.77,68.55 282.08,67.58 287.03,67.52C294.2,67.51 301.37,67.55 308.53,67.52C308.52,70.35 308.52,73.17 308.53,76C306.42,76 304.31,76 302.21,75.99C304.78,79.02 306.32,83.19 304.85,87.09C303.12,93.01 296.79,96.01 291.04,96.45C288.76,96.76 284.54,96.73 285.43,100.17C290.95,102.29 297.52,100.87 302.62,104.33C309.44,108.35 308.1,119.93 300.97,122.91C293.8,126.21 285.48,125.83 277.86,124.64C272.99,123.84 267.14,120.66 267.33,115C267.18,110.32 271.65,107.54 275.75,106.82C274.38,105.19 272.68,103.36 273.21,101.04C273.41,98.07 275.86,96.12 278.45,95.14C274.43,93.7 270.41,91.05 269.03,86.8C267.48,81.66 268.7,75.44 272.92,71.88Z" style="fill:white;fill-rule:nonzero;"/>
    </g>
    <g transform="matrix(1,0,0,1,0,94)">
        <path d="M284.41,76.57C288.63,74.67 293.98,78.36 293.38,83.03C293.13,88.15 286.21,90.76 282.46,87.46C278.85,84.53 280.26,78.23 284.41,76.57Z" style="fill:rgb(35,31,32);fill-rule:nonzero;"/>
    </g>
    <g transform="matrix(1,0,0,1,0,94)">
        <path d="M314.84,109.17C319.74,103.5 326.45,99.3 333.92,98.17C344.84,96.18 356.58,100.75 363.38,109.49C367.04,113.98 369.1,119.55 369.98,125.24C372.52,125.24 375.06,125.24 377.61,125.25C374.86,127.97 372.12,130.71 369.39,133.46C366.65,130.71 363.92,127.96 361.16,125.23C363.35,125.24 365.55,125.24 367.76,125.24C366.68,118.75 363.8,112.48 358.95,107.95C352.08,101.32 341.81,98.45 332.52,100.71C325.39,102.32 319.15,106.85 315,112.81C314.96,111.9 314.88,110.08 314.84,109.17Z" style="fill:white;fill-rule:nonzero;"/>
    </g>
    <g transform="matrix(1,0,0,1,0,94)">
        <path d="M282.41,110.69C286.19,109.95 290.25,109.85 293.94,111.09C296.45,111.74 296.8,115.38 294.87,116.87C292.03,118.94 288.27,118.73 284.94,118.55C282.59,118.32 279.33,117.54 279.05,114.71C278.75,112.63 280.51,111.05 282.41,110.69Z" style="fill:rgb(35,31,32);fill-rule:nonzero;"/>
    </g>
    <g transform="matrix(1,0,0,1,0,94)">
        <path d="M198.66,125.78C209.5,122.87 220.98,122.64 232.07,124.08C243.22,125.5 254.02,131.08 260.5,140.44C270.16,153.45 265.71,173.64 252.59,182.62C239.56,192.01 222.56,191.76 207.27,190.36C204.34,194.65 201.47,198.98 198.55,203.28C216.14,203.33 234.03,202.62 251.24,206.9C257.93,208.69 264.88,211.21 269.61,216.51C274.93,222.31 275.15,231.8 270.6,238.12C266.95,243.26 261.23,246.41 255.5,248.71C244.24,253.13 232.04,254.57 220.01,254.8C208.74,254.95 197.25,254.59 186.37,251.33C182.01,249.92 177.44,248.13 174.44,244.49C172.1,241.7 171.72,237.17 174.32,234.42C178.49,229.89 185.16,229.18 190.98,229.47C195.68,229.87 201.08,230.92 204.06,234.95C205.92,237.56 204.04,240.56 202.81,242.97C213.82,245.55 225.62,246.24 236.46,242.51C239.89,241.22 243.52,239.62 245.69,236.52C247.59,233.91 246.86,229.97 244.21,228.17C239.54,224.77 233.61,223.95 228.04,223.1C212.09,221.21 195.99,221.98 179.98,222.43C177.06,222.46 174.02,222.64 171.25,221.52C170.63,218.44 173.08,215.91 174.5,213.43C180.61,204.46 186.59,195.39 192.72,186.43C186.28,182.86 180.09,178.2 176.69,171.49C171.35,161.01 172.47,147.4 179.75,138.1C184.43,131.98 191.27,127.78 198.66,125.78Z" style="fill:rgb(215,223,35);fill-rule:nonzero;"/>
    </g>
    <g transform="matrix(1,0,0,1,0,94)">
        <path d="M390.24,142.25C399.48,129.27 417.55,123.81 432.48,129.35C440.9,132.24 448.07,138.39 452.32,146.2C436.45,158.95 420.56,171.68 404.71,184.45C412.04,189.59 421.93,191.14 430.19,187.34C439.07,183.66 444.83,174.61 445.52,165.16C449.38,164.69 453.24,164.27 457.12,163.89C457.11,175.55 451.52,187.05 442.05,193.91C427.74,204.88 405.47,203.02 393.29,189.68C380.99,177.33 379.73,156.09 390.24,142.25Z" style="fill:rgb(215,223,35);fill-rule:nonzero;"/>
    </g>
    <g transform="matrix(1,0,0,1,0,94)">
        <path d="M214.44,133.68C219.24,131.65 225.92,132.18 228.94,136.93C231.51,141.49 231.55,146.91 231.98,151.99C232.21,159.68 232.45,167.61 230.17,175.04C227.83,182.57 217.24,183.58 211.56,179.43C207.86,176.09 207.48,170.71 207.08,166.04C206.76,158.99 207.15,151.9 208.11,144.92C208.8,140.66 210.02,135.52 214.44,133.68Z" style="fill:rgb(35,31,32);fill-rule:nonzero;"/>
    </g>
    <g transform="matrix(1,0,0,1,0,94)">
        <path d="M273.26,137.01C281.72,135.95 290.1,134.3 298.33,132.06C298.36,148.39 298.29,164.72 298.35,181.05C298.53,183.35 298.3,186.19 300.28,187.83C302.34,189.12 304.86,189.28 307.18,189.81C307.18,191.29 307.19,192.78 307.19,194.26C295.48,194.27 283.77,194.26 272.06,194.27C272.05,192.78 272.06,191.29 272.06,189.81C275.18,189.16 280.06,189.08 280.38,184.9C281.19,173.96 280.5,162.96 280.75,152C280.52,148.99 281.18,145.42 279.08,142.93C277.35,141.8 275.23,141.54 273.29,140.94C273.27,139.63 273.27,138.32 273.26,137.01Z" style="fill:rgb(215,223,35);fill-rule:nonzero;"/>
    </g>
    <g transform="matrix(1,0,0,1,0,94)">
        <path d="M125.52,142.39C132.87,137.98 141.82,135.92 150.27,137.81C155.49,138.97 160.21,143.42 160.24,149.02C160.53,161.02 160.17,173.05 160.38,185.06C160.27,187.65 162.85,189.06 164.35,190.8C164.32,191.66 164.26,193.39 164.23,194.26C154.97,194.37 145.71,194.4 136.46,194.24C136.44,192.86 136.42,191.48 136.41,190.1C137.96,188.69 140.69,187.66 140.2,185.09C140.27,174.05 140.17,163.02 140.25,151.98C140.21,149.81 140.43,146.81 137.91,145.89C133.58,144.46 129.2,146.54 125.55,148.74C125.62,160.86 125.47,172.99 125.6,185.11C125.34,187.43 127.6,188.66 128.9,190.19C128.85,191.56 128.8,192.94 128.75,194.31C119.46,194.31 110.16,194.43 100.86,194.24C100.84,192.85 100.83,191.46 100.83,190.07C102.25,189.04 103.79,188.14 104.97,186.82C105.64,184.95 105.4,182.92 105.48,180.98C105.35,169.96 105.55,158.95 105.4,147.93C105.72,144.45 101.74,143.55 99.37,142.23C99.37,140.92 99.38,139.62 99.39,138.32C108.11,137.84 116.85,137.82 125.58,137.6C125.56,139.19 125.54,140.79 125.52,142.39Z" style="fill:rgb(215,223,35);fill-rule:nonzero;"/>
    </g>
    <g transform="matrix(1,0,0,1,0,94)">
        <path d="M339.29,142.37C346.7,137.96 355.73,135.87 364.24,137.86C369.3,139.07 374,143.43 373.93,148.91C374.18,160.97 373.81,173.04 374.07,185.09C374.02,187.58 376.44,188.94 377.93,190.57C377.94,191.79 377.95,193.01 377.96,194.24C368.73,194.39 359.5,194.39 350.27,194.24C350.25,192.83 350.24,191.42 350.24,190.02C351.85,188.71 354.42,187.61 354.02,185.08C354.14,174.05 354.01,163.01 354.08,151.98C353.97,149.89 354.22,147.04 351.93,146C347.73,144.54 342.98,146.11 339.6,148.78C338.96,160.51 339.51,172.32 339.33,184.08C338.86,186.74 340.85,188.56 342.61,190.16C342.63,191.53 342.65,192.89 342.67,194.26C333.33,194.37 323.98,194.39 314.65,194.25C314.63,192.86 314.62,191.47 314.62,190.08C316.04,189.01 317.64,188.1 318.77,186.7C319.4,184.87 319.18,182.88 319.25,180.98C319.12,169.95 319.34,158.9 319.17,147.87C319.49,144.32 315.23,143.92 313.35,141.9C313.18,140.72 313.06,139.54 313,138.36C321.77,137.79 330.57,137.84 339.35,137.6C339.33,139.19 339.31,140.78 339.29,142.37Z" style="fill:rgb(215,223,35);fill-rule:nonzero;"/>
    </g>
    <g transform="matrix(1,0,0,1,0,94)">
        <path d="M38.67,155.45C41.68,146.2 50.33,139.38 59.9,138.08C70.11,136.36 82.16,138.49 88.79,147.12C93.25,152.6 93.23,160 92.81,166.68C81.57,167.14 70.31,166.77 59.07,166.89C59.24,172.47 58.76,178.45 61.45,183.56C63.94,188.4 70.58,189.45 75.24,187.43C78.49,185.99 80.02,182.58 81.56,179.61C85.16,180.04 88.77,180.37 92.38,180.72C91.33,185.66 88.96,190.65 84.34,193.17C76.99,197.32 68.05,197.23 59.93,196.08C51.15,194.69 42.39,189.47 39.08,180.89C36.01,172.82 36.05,163.63 38.67,155.45Z" style="fill:rgb(215,223,35);fill-rule:nonzero;"/>
    </g>
    <g transform="matrix(1,0,0,1,0,94)">
        <path d="M395.56,157.84C397.97,148 406.85,140.23 416.9,139.06C423.44,138.06 430,140.3 435.43,143.86C422.6,154.18 409.73,164.44 396.88,174.72C394.9,169.36 393.92,163.43 395.56,157.84Z" style="fill:rgb(35,31,32);fill-rule:nonzero;"/>
    </g>
    <g transform="matrix(1,0,0,1,0,94)">
        <path d="M60.72,146.45C63.3,141.62 72.02,142.73 73.05,148.25C73.86,152.16 73.41,156.2 73.49,160.17C68.68,160.16 63.88,160.17 59.08,160.17C59.24,155.59 58.61,150.68 60.72,146.45Z" style="fill:rgb(35,31,32);fill-rule:nonzero;"/>
    </g>
    <g transform="matrix(1,0,0,1,0,94)">
        <path d="M281.91,215.68C284.81,210.59 287.73,205.5 290.64,200.41C295.73,203.35 300.82,206.27 305.93,209.16C302.34,210.12 298.75,211.1 295.17,212.08C299.69,225.25 310.58,236.11 323.96,240.17C338.1,244.76 354.44,241.4 365.67,231.67C373.11,225.46 378.16,216.72 380.4,207.34C381.26,207.35 382.96,207.38 383.81,207.39C381,220.51 372.67,232.37 361,239.07C347.61,247.01 330.27,247.64 316.33,240.73C304.9,235.23 296.02,224.95 291.95,212.96C288.6,213.85 285.25,214.77 281.91,215.68Z" style="fill:white;fill-rule:nonzero;"/>
    </g>
    <g transform="matrix(1,0,0,1,0,94)">
        <path d="M209.51,229.33C219.31,229.81 229.45,229.72 238.74,233.32C230.83,237.78 221.43,238.11 212.6,237.28C211.95,234.49 210.94,231.81 209.51,229.33Z" style="fill:white;fill-rule:nonzero;"/>
    </g>
    <g transform="matrix(1,0,0,1,0,94)">
        <path d="M422.43,232.62C428.22,229.93 435.47,235.6 433.73,241.89C432.67,248.28 423.63,250.4 419.49,245.67C415.6,241.8 417.22,234.4 422.43,232.62Z" style="fill:rgb(35,31,32);fill-rule:nonzero;"/>
    </g>
    <g transform="matrix(1,0,0,1,0,94)">
        <path d="M423.23,234.19C427.89,231.94 433.16,237.07 431.57,241.83C430.76,246.08 425.09,247.94 421.84,245.17C418.14,242.42 418.9,235.89 423.23,234.19Z" style="fill:white;fill-rule:nonzero;"/>
    </g>
    <g transform="matrix(1,0,0,1,0,94)">
        <path d="M422.51,235.96C424.49,236.06 426.58,235.79 428.49,236.53C429.65,237.72 428.67,239.22 428.36,240.54C428.8,242.02 429.18,243.49 429.56,245.01C427.65,244.57 427.03,242.84 426.23,241.37C425.79,241.25 424.91,241.01 424.47,240.89C424.43,241.76 424.37,243.51 424.33,244.38L422.43,244.37C422.43,241.56 422.43,238.76 422.51,235.96Z" style="fill:rgb(35,31,32);fill-rule:nonzero;"/>
    </g>
    <g transform="matrix(1,0,0,1,0,94)">
        <path d="M424.67,236.77C425.64,237.41 426.63,238.03 427.49,238.84C426.5,239.29 425.51,239.73 424.52,240.16C424.56,239.32 424.63,237.62 424.67,236.77Z" style="fill:white;fill-rule:nonzero;"/>
    </g>
</svg>
